<?xml version="1.0" standalone="no"?><!DOCTYPE svg PUBLIC "-//W3C//DTD SVG 1.1//EN" "http://www.w3.org/Graphics/SVG/1.1/DTD/svg11.dtd"><svg t="1607870964859" class="icon" viewBox="0 0 1024 1024" version="1.1" xmlns="http://www.w3.org/2000/svg" p-id="801" xmlns:xlink="http://www.w3.org/1999/xlink" width="200" height="200"><defs><style type="text/css"></style></defs><path d="M194.372408 193.049784C262.357801 125.048017 350.062306 80.932264 446.957123 67.019393 565.382303 49.991578 683.394067 80.189344 779.17041 151.911852c95.80295 71.770604 157.926846 176.541809 174.949544 294.966988 35.121915 244.644883-135.340431 472.129944-379.829771 507.275395-102.519931 14.703887-207.644177-6.78452-296.020994-60.441581-15.10093-9.188266-19.914562-28.883841-10.748808-43.982724 9.258874-14.968923 28.866445-19.909445 43.983747-10.723226 75.691913 46.000684 165.803233 64.377216 253.705236 51.77827 209.518874-30.066783 355.60402-225.082338 325.536214-434.80178-14.569834-101.534488-67.829851-191.294814-149.956314-252.78426C658.688385 141.680836 557.551964 115.858728 456.035896 130.473587c-209.739908 30.05655-355.780029 225.116107-325.648778 434.743452 7.900947 54.882981 26.935466 106.173135 56.719816 152.387689 9.541307 14.924921 5.185093 34.793434-9.586332 44.248783-14.855336 9.581216-34.682917 5.29254-44.243667-9.541307-34.749432-54.092989-57.003272-113.918539-66.261123-177.98774C50.015625 455.894168 80.166319 337.818959 151.985018 242.019079 165.028079 224.561475 179.204963 208.191646 194.372408 193.049784L194.372408 193.049784 194.372408 193.049784 194.372408 193.049784zM194.372408 193.049784" p-id="802" fill="#FF99FF"></path><path d="M586.08788 329.22421 392.196938 329.22421c-16.800641 0-25.180496-8.379854-25.180496-25.180496 0-11.725042 8.379854-19.279089 25.180496-22.662139l231.661174 0c18.453281 1.691525 28.52466 7.554046 30.217209 17.626449-1.692548 8.419763-5.90243 19.317974-12.591783 32.734542L470.256782 722.042807c-6.728238 11.763928-17.627473 17.626449-32.734542 17.626449-15.109116 0-22.662139-5.862521-22.662139-17.626449-1.691525-5.036713 1.65264-15.108093 10.072403-30.217209l161.1564-360.083032L586.088904 329.22421z" p-id="803" fill="#FF99FF"></path></svg>